<?xml version="1.0" encoding="iso-8859-1"?>
<!-- Generator: Adobe Illustrator 19.0.0, SVG Export Plug-In . SVG Version: 6.00 Build 0)  -->
<svg version="1.1" id="Layer_1" xmlns="http://www.w3.org/2000/svg" xmlns:xlink="http://www.w3.org/1999/xlink" x="0px" y="0px"
	 viewBox="0 0 512 512" style="enable-background:new 0 0 512 512;" xml:space="preserve">
<polygon style="fill:#367596;" points="503.83,32.681 503.83,98.043 449.362,119.83 471.149,32.681 "/>
<polygon style="fill:#5195AF;" points="471.149,32.681 471.149,119.83 305.021,119.83 326.809,32.681 "/>
<polygon style="fill:#27467A;" points="8.17,32.681 8.17,98.043 40.851,119.83 326.809,119.83 326.809,32.681 "/>
<polygon style="fill:#A0F6FA;" points="503.83,98.043 503.83,479.319 471.149,479.319 427.574,288.681 471.149,98.043 "/>
<rect x="8.17" y="98.043" style="fill:#D0FBFD;" width="462.979" height="381.277"/>
<path style="fill:#111449;" d="M152.629,323.964c38.288,38.288,100.365,38.288,138.653,0l-59.597-79.056l-79.056-59.597
	C114.342,223.599,114.342,285.675,152.629,323.964z"/>
<path style="fill:#2F5E88;" d="M152.629,185.31l138.653,138.653c38.288-38.288,38.288-100.365,0-138.653
	C252.996,147.022,190.918,147.022,152.629,185.31z"/>
<path style="fill:#A0F6FA;" d="M175.739,208.42l92.436,92.436c25.525-25.526,25.526-66.91,0-92.436
	C242.649,182.894,201.264,182.894,175.739,208.42z"/>
<path style="fill:#FFFFFF;" d="M253.467,223.126c-25.525-25.525-60.326-32.11-77.728-14.707c-25.526,25.525-25.526,66.91,0,92.436
	c25.525,25.525,66.91,25.525,92.436,0C285.577,283.452,278.992,248.652,253.467,223.126z"/>
<rect x="329.933" y="333.87" transform="matrix(-0.7071 0.7071 -0.7071 -0.7071 859.0934 402.0786)" style="fill:#FF754F;" width="32.681" height="90.187"/>
<path d="M503.83,24.511H8.17c-4.513,0-8.17,3.658-8.17,8.17v446.638c0,4.512,3.657,8.17,8.17,8.17h495.66
	c4.513,0,8.17-3.658,8.17-8.17V392.17c0-4.512-3.657-8.17-8.17-8.17s-8.17,3.658-8.17,8.17v78.979H16.34V106.213H495.66v253.277
	c0,4.512,3.657,8.17,8.17,8.17s8.17-3.658,8.17-8.17V32.681C512,28.169,508.343,24.511,503.83,24.511z M16.34,40.851h302.298v49.021
	H16.34V40.851z M334.979,89.872V40.851H495.66v49.021H334.979z"/>
<path d="M415.591,56.647c-4.805,0-8.715,3.91-8.715,8.715c0,4.805,3.91,8.715,8.715,8.715c4.805,0,8.715-3.91,8.715-8.715
	S420.397,56.647,415.591,56.647z"/>
<path d="M370.928,56.647c-4.805,0-8.715,3.91-8.715,8.715c0,4.805,3.91,8.715,8.715,8.715s8.715-3.91,8.715-8.715
	S375.733,56.647,370.928,56.647z"/>
<path d="M460.255,56.647c-4.805,0-8.715,3.91-8.715,8.715c0,4.805,3.91,8.715,8.715,8.715c4.805,0,8.715-3.91,8.715-8.715
	S465.06,56.647,460.255,56.647z"/>
<path d="M293.85,357.81c0,2.167,0.861,4.245,2.392,5.777l63.774,63.775c1.533,1.533,3.61,2.393,5.778,2.393
	c2.167,0,4.245-0.861,5.778-2.393l23.109-23.109c3.191-3.191,3.191-8.364,0-11.554l-63.773-63.774
	c-3.191-3.191-8.363-3.191-11.555,0l-5.777,5.777l-11.799-11.799c35.757-41.683,33.934-104.719-5.533-144.186
	c-41.413-41.412-108.796-41.412-150.209,0c-41.412,41.412-41.412,108.796,0,150.208c20.707,20.705,47.906,31.059,75.104,31.059
	c24.642,0,49.269-8.529,69.082-25.526l11.798,11.799l-5.777,5.777C294.71,353.564,293.85,355.643,293.85,357.81z M157.59,317.369
	c-35.041-35.041-35.041-92.058,0-127.099c17.52-17.52,40.534-26.28,63.549-26.28s46.029,8.761,63.549,26.28
	c35.041,35.041,35.041,92.058,0,127.099C249.648,352.411,192.631,352.41,157.59,317.369z M377.349,398.475l-11.554,11.555
	l-52.22-52.22l5.775-5.775c0.001-0.001,0.002-0.002,0.003-0.002c0.001-0.001,0.001-0.002,0.002-0.003l5.775-5.775L377.349,398.475z"
	/>
<path d="M273.136,201.826c-28.67-28.67-75.322-28.67-103.992,0c-28.669,28.67-28.669,75.32,0,103.989
	c14.335,14.335,33.166,21.503,51.995,21.503s37.66-7.168,51.996-21.503C301.804,277.145,301.804,230.496,273.136,201.826z
	 M261.58,294.261c-10.802,10.802-25.164,16.751-40.44,16.751s-29.638-5.949-40.44-16.751c-22.299-22.299-22.299-58.582,0-80.881
	c10.802-10.802,25.164-16.751,40.44-16.751c15.277,0,29.638,5.949,40.44,16.751C283.879,235.679,283.879,271.961,261.58,294.261z"/>
<g>
</g>
<g>
</g>
<g>
</g>
<g>
</g>
<g>
</g>
<g>
</g>
<g>
</g>
<g>
</g>
<g>
</g>
<g>
</g>
<g>
</g>
<g>
</g>
<g>
</g>
<g>
</g>
<g>
</g>
</svg>
