<?xml version="1.0" encoding="iso-8859-1"?>
<!-- Generator: Adobe Illustrator 19.0.0, SVG Export Plug-In . SVG Version: 6.00 Build 0)  -->
<svg version="1.1" id="Layer_1" xmlns="http://www.w3.org/2000/svg" xmlns:xlink="http://www.w3.org/1999/xlink" x="0px" y="0px"
	 viewBox="0 0 392.598 392.598" style="enable-background:new 0 0 392.598 392.598;" xml:space="preserve">
<path style="fill:#56ACE0;" d="M370.747,337.927c0,18.036-14.675,32.711-32.711,32.711H54.562
	c-17.972,0-32.711-14.675-32.711-32.711V223.179h21.786v92.962c0,17.972,14.675,32.711,32.711,32.711h239.838
	c17.972,0,32.711-14.675,32.711-32.711v-92.962h21.786v114.747H370.747z"/>
<path style="fill:#FFC10D;" d="M301.317,67.704c0,2.844-1.099,5.624-3.168,7.758c-2.004,2.069-4.784,3.232-7.758,3.232
	c-42.731,0.259-82.812,17.131-112.873,47.515c-19.329,19.523-32.905,43.119-40.21,68.784c32.129-41.697,89.018-69.172,153.406-69.56
	h0.065c6.012,0,10.925,4.848,10.925,10.796l0.129,30.448l64.259-65.164l-65.034-64.259L301.317,67.704z"/>
<g>
	<path style="fill:#194F82;" d="M121.6,269.595h0.065c5.495,0,10.149-4.008,10.796-9.503
		c8.145-61.026,70.659-108.089,147.523-112.679l0.323,45.511c0.259,10.15,11.378,14.287,18.618,7.564l90.505-91.539
		c4.267-4.267,4.202-11.184-0.065-15.451L297.762,3.187c-7.24-6.982-19.071-1.099-18.554,7.822l0.323,46.158
		c-44.412,2.844-85.786,21.721-117.398,53.657c-35.232,36.073-58.246,90.505-51.2,149.139
		C111.58,265.458,116.105,269.595,121.6,269.595z M177.648,126.145c30.061-30.448,70.141-47.321,112.873-47.515
		c6.012,0,10.925-4.978,10.796-10.99l-0.129-30.448l65.164,64.259l-64.323,65.164l-0.129-30.448
		c-0.129-6.465-4.719-10.796-10.925-10.796h-0.065c-64.323,0.388-121.212,27.798-153.406,69.56
		C144.743,169.264,158.319,145.668,177.648,126.145z"/>
	<path style="fill:#194F82;" d="M381.608,201.329h-43.572c-6.012,0-10.925,4.848-10.925,10.925v25.471h-50.489
		c-6.012,0-10.925,4.848-10.925,10.925c0,6.012,4.849,10.925,10.925,10.925h50.489v21.786h-28.638
		c-6.012,0-10.925,4.848-10.925,10.925c0,6.077,4.848,10.925,10.925,10.925h28.638v12.994c0,6.012-4.849,10.925-10.925,10.925
		H76.347c-6.012,0-10.925-4.848-10.925-10.925V212.254c0-6.012-4.848-10.925-10.925-10.925H10.925
		C4.913,201.329,0,206.177,0,212.254v125.737c0,30.061,24.436,54.497,54.497,54.497h283.41c30.061,0,54.497-24.436,54.497-54.497
		V212.254C392.533,206.242,387.685,201.329,381.608,201.329z M370.747,337.927c0,18.036-14.675,32.711-32.711,32.711H54.562
		c-18.036,0-32.711-14.675-32.711-32.711V223.179h21.786v92.962c0,18.036,14.675,32.711,32.711,32.711h239.838
		c18.036,0,32.711-14.675,32.711-32.711v-92.962h21.786v114.747H370.747z"/>
</g>
<g>
</g>
<g>
</g>
<g>
</g>
<g>
</g>
<g>
</g>
<g>
</g>
<g>
</g>
<g>
</g>
<g>
</g>
<g>
</g>
<g>
</g>
<g>
</g>
<g>
</g>
<g>
</g>
<g>
</g>
</svg>
